<svg xmlns="http://www.w3.org/2000/svg" width="153" height="128" viewBox="0 0 153 128" fill="none">
  <path opacity="0.7" d="M172.949 88.9741C172.949 84.8995 170.638 81.1616 166.976 79.3432L132.842 62.3376C131.02 61.4284 129.855 59.5595 129.855 57.5222V22.4166C129.855 17.9211 127.055 13.897 122.836 12.3312L92.8696 1.13441C88.7863 -0.380933 84.2981 -0.380933 80.2317 1.15125L50.3832 12.3985C46.1818 13.9812 43.3977 18.0053 43.3977 22.484V57.3538C43.3977 59.3911 42.2335 61.2601 40.4112 62.1693L5.97317 79.3264C2.31171 81.1448 -0.016782 84.8995 9.10891e-05 88.9909L0.0844566 127.043C0.0844566 130.949 2.21047 134.536 5.63571 136.438L43.3977 157.417L43.6002 157.535C46.7892 159.303 50.67 159.286 53.859 157.501L54.1965 157.316L83.8425 140.361C85.513 139.402 87.5715 139.402 89.2419 140.378L119.074 157.636C120.677 158.545 122.465 159 124.254 159C126.008 159 127.78 158.562 129.366 157.687L129.872 157.4L167.432 136.623C170.874 134.721 173 131.101 173 127.178L172.949 88.9741ZM119.04 57.2865C119.04 59.3406 117.892 61.2095 116.053 62.1188L93.882 73.1808C92.9877 73.6354 91.9248 72.9788 91.9248 71.9685V44.5407C91.9248 39.6411 94.9113 35.2466 99.467 33.4282L118.939 25.6662L119.04 57.2865ZM43.4315 97.8978L43.3977 97.881L18.2399 85.2531L43.3977 72.7262L46.2324 71.3119C47.7847 70.5374 49.607 70.5542 51.1425 71.3624L54.1965 72.9451L76.0978 83.7714C77.0764 84.2597 77.1102 85.6403 76.1315 86.1623L54.1965 97.9146C50.8219 99.6152 46.8229 99.5984 43.4315 97.8978ZM78.1394 132.229L54.2134 144.116L54.0784 116.57C54.0615 112.024 56.6262 107.849 60.6926 105.811L79.0506 96.635C79.9448 96.1804 81.0079 96.8371 81.0079 97.8304L81.1428 127.397C81.1428 129.434 79.9786 131.303 78.1394 132.229ZM82.324 24.0835L64.9447 17.5844L86.5422 9.5025L108.14 17.5844L90.7605 24.0835C88.0439 25.1106 85.0405 25.1106 82.324 24.0835ZM118.719 98.0325L96.9192 86.1623C95.9574 85.6403 95.9912 84.2597 96.9698 83.7714L119.074 72.7767L121.79 71.3624C123.326 70.5542 125.165 70.5374 126.7 71.3119L129.855 72.8777L154.693 85.2699L130.024 98.1504C126.464 99.9856 122.229 99.9519 118.719 98.0325ZM162.134 124.787C162.134 126.774 161.037 128.609 159.265 129.552L129.855 145.076L129.754 116.604C129.737 112.058 132.302 107.882 136.385 105.862L162.134 93.015V124.787Z" fill="url(#paint0_linear_1_25)"/>
  <defs>
    <linearGradient id="paint0_linear_1_25" x1="8.34352e-07" y1="10.1489" x2="187.471" y2="31.6536" gradientUnits="userSpaceOnUse">
      <stop stop-color="#314664"/>
      <stop offset="1" stop-color="#5A77A1"/>
    </linearGradient>
  </defs>
</svg>