<svg xmlns="http://www.w3.org/2000/svg" width="143" height="130" viewBox="0 0 143 130" fill="none">
  <path opacity="0.7" d="M122.57 113.369C117.878 113.37 113.329 115.067 109.688 118.174C106.047 121.281 103.535 125.61 102.576 130.432L51.7751 130.422C50.4422 129.489 49.6301 123.113 49.1501 118.732H63.8944C66.2232 121.971 69.8902 124.094 74.0525 124.094C76.4683 124.094 78.8343 123.373 80.8758 122.017C82.9174 120.661 84.5506 118.725 85.5859 116.433C86.6212 114.142 87.016 111.588 86.7244 109.071C86.4329 106.553 85.467 104.173 83.939 102.209C82.411 100.244 80.3834 98.775 78.0919 97.972C75.8004 97.169 73.339 97.0651 70.9935 97.6723C68.6479 98.2794 66.5146 99.5728 64.8413 101.402C63.1679 103.232 62.0232 105.522 61.54 108.007H47.7762C45.9224 97.4273 41.6579 86.5578 28.2823 86.5578H5.10607C3.75158 86.5578 2.45255 87.1228 1.49478 88.1284C0.537004 89.1341 -0.00106812 90.498 -0.00106812 91.9202C-0.00106812 93.3423 0.537004 94.7063 1.49478 95.7119C2.45255 96.7175 3.75158 97.2825 5.10607 97.2825H28.2874C33.4456 97.2825 35.8102 100.596 37.3372 108.007H5.10607C3.75158 108.007 2.45255 108.572 1.49478 109.578C0.537004 110.583 -0.00106812 111.947 -0.00106812 113.369C-0.00106812 114.792 0.537004 116.156 1.49478 117.161C2.45255 118.167 3.75158 118.732 5.10607 118.732H38.8694C39.9419 128.797 41.3566 141.157 51.9947 141.157H102.775C102.903 141.157 103.005 141.093 103.127 141.082C105.696 149.849 113.377 156.268 122.57 156.268C127.988 156.268 133.184 154.008 137.016 149.986C140.847 145.963 142.999 140.507 142.999 134.819C142.999 129.13 140.847 123.674 137.016 119.652C133.184 115.629 127.988 113.369 122.57 113.369ZM122.57 145.543C121.229 145.543 119.9 145.265 118.661 144.726C117.421 144.186 116.295 143.396 115.347 142.4C114.398 141.403 113.646 140.22 113.133 138.919C112.62 137.617 112.356 136.222 112.356 134.813C112.356 133.405 112.621 132.01 113.135 130.708C113.649 129.407 114.401 128.225 115.35 127.229C116.299 126.233 117.426 125.443 118.665 124.904C119.905 124.365 121.234 124.088 122.575 124.089C125.285 124.089 127.884 125.22 129.799 127.233C131.715 129.245 132.79 131.974 132.79 134.819C132.789 137.664 131.712 140.392 129.795 142.403C127.879 144.415 125.28 145.544 122.57 145.543ZM5.10607 75.8332H66.4735C66.688 75.8332 66.8719 75.7313 67.0761 75.7045C68.1772 80.3301 70.7176 84.4372 74.2943 87.3748C77.871 90.3123 82.2794 91.912 86.8204 91.9202C92.2383 91.9202 97.4344 89.6603 101.266 85.6378C105.097 81.6153 107.249 76.1596 107.249 70.4709C107.249 64.7822 105.097 59.3265 101.266 55.304C97.4344 51.2814 92.2383 49.0216 86.8204 49.0216C82.2794 49.0298 77.871 50.6295 74.2943 53.567C70.7176 56.5045 68.1772 60.6117 67.0761 65.2373C66.8719 65.2105 66.688 65.1086 66.4735 65.1086H5.10607C3.75158 65.1086 2.45255 65.6735 1.49478 66.6792C0.537004 67.6848 -0.00106812 69.0487 -0.00106812 70.4709C-0.00106812 71.8931 0.537004 73.257 1.49478 74.2626C2.45255 75.2682 3.75158 75.8332 5.10607 75.8332ZM86.8204 59.7463C88.162 59.7466 89.4905 60.0244 90.73 60.5638C91.9694 61.1033 93.0955 61.8937 94.044 62.8901C94.9925 63.8865 95.7448 65.0693 96.2579 66.3709C96.771 67.6725 97.035 69.0675 97.0346 70.4763C97.0343 71.885 96.7697 73.2799 96.256 74.5812C95.7422 75.8826 94.9893 77.0649 94.0404 78.0608C93.0914 79.0567 91.965 79.8466 90.7253 80.3854C89.4856 80.9241 88.1569 81.2012 86.8152 81.2009C84.1056 81.2002 81.5071 80.0693 79.5916 78.057C77.676 76.0448 76.6003 73.3159 76.601 70.4709C76.6016 67.6258 77.6787 64.8976 79.5952 62.8863C81.5117 60.8751 84.1107 59.7455 86.8204 59.7463ZM5.10607 55.3545H28.2874C45.5597 55.3545 47.6945 40.2274 48.9713 31.1919C50.0387 23.5667 50.6924 22.21 51.9947 22.21H99.6444C101.973 25.4489 105.64 27.5723 109.802 27.5723C112.218 27.5718 114.584 26.8517 116.626 25.4957C118.667 24.1396 120.301 22.2033 121.336 19.9116C122.371 17.6198 122.766 15.0667 122.474 12.5488C122.183 10.0309 121.217 7.65148 119.689 5.68691C118.161 3.72234 116.133 2.25325 113.842 1.45026C111.55 0.647267 109.089 0.54333 106.743 1.15052C104.398 1.75771 102.265 3.0511 100.591 4.88049C98.9179 6.70987 97.7731 9.00017 97.29 11.4854H51.9947C41.4179 11.4854 39.8806 22.3977 38.8643 29.6207C37.3628 40.2864 35.9839 44.6299 28.2874 44.6299H5.10607C3.75158 44.6299 2.45255 45.1948 1.49478 46.2005C0.537004 47.2061 -0.00106812 48.57 -0.00106812 49.9922C-0.00106812 51.4144 0.537004 52.7783 1.49478 53.7839C2.45255 54.7896 3.75158 55.3545 5.10607 55.3545Z" fill="url(#paint0_linear_1_35)"/>
  <defs>
    <linearGradient id="paint0_linear_1_35" x1="-0.00106743" y1="10.6867" x2="155.537" y2="25.7657" gradientUnits="userSpaceOnUse">
      <stop stop-color="#314664"/>
      <stop offset="1" stop-color="#5A77A1"/>
    </linearGradient>
  </defs>
</svg>