<svg xmlns="http://www.w3.org/2000/svg" width="141" height="129" viewBox="0 0 141 129" fill="none">
  <path opacity="0.7" d="M109.071 21.3044C109.043 21.2878 109.044 21.2458 109.074 21.231L109.08 21.2276C109.082 21.2269 109.083 21.2266 109.085 21.2266C109.095 21.2266 109.098 21.2133 109.09 21.2083L75.391 1.85966C72.3069 0.088852 68.5143 0.0892655 65.4306 1.86075L31.7208 21.2256C31.7197 21.2262 31.7184 21.2266 31.7171 21.2266C31.7088 21.2266 31.7065 21.2379 31.7141 21.2411L31.777 21.2681C31.7934 21.2751 31.7947 21.2979 31.7793 21.3068L5.00633 36.7394C1.90894 38.5248 0.000335693 41.828 0.000335693 45.4031V115.1C0.000335693 118.673 1.90739 121.975 5.00276 123.761L65.4129 158.617C68.5057 160.401 72.3153 160.401 75.4081 158.617L135.818 123.761C138.914 121.975 140.821 118.673 140.821 115.1V45.4C140.821 41.8266 138.914 38.5247 135.819 36.7386L109.071 21.3044ZM64.6878 127.697C64.6878 135.395 56.3554 140.206 49.6887 136.358L41.7395 131.769C38.645 129.983 36.7386 126.682 36.7386 123.109V107.438C36.7386 103.84 34.8056 100.519 31.6769 98.7426L16.4879 90.1168C13.3591 88.3399 11.4261 85.0192 11.4261 81.4212V70.3947C11.4261 62.6984 19.756 57.8869 26.4227 61.7324L59.6844 80.9186C62.7804 82.7044 64.6878 86.0068 64.6878 89.5808V127.697ZM31.9447 51.6988C25.2746 47.8526 25.2713 38.2275 31.9387 34.3765L38.2574 30.7269C41.3434 28.9445 45.1447 28.9391 48.2358 30.7128L65.3919 40.5569C68.4756 42.3262 72.2668 42.3254 75.3496 40.5546L92.5477 30.6759C95.6378 28.9009 99.439 28.9045 102.526 30.6853L108.931 34.3806C115.601 38.229 115.601 47.8565 108.93 51.7046L75.4454 71.0205C72.3535 72.804 68.5454 72.8043 65.4532 71.0213L31.9447 51.6988ZM129.395 81.517C129.395 85.1161 127.461 88.4375 124.331 90.2139L109.303 98.7431C106.173 100.52 104.239 103.841 104.239 107.44V123.009C104.239 126.583 102.331 129.885 99.235 131.671L91.1295 136.346C84.4629 140.192 76.1331 135.38 76.1331 127.684V89.6199C76.1331 86.0458 78.0406 82.7435 81.1366 80.9577L114.398 61.7715C121.065 57.926 129.395 62.7375 129.395 70.4337V81.517Z" fill="url(#paint0_linear_1_30)"/>
  <defs>
    <linearGradient id="paint0_linear_1_30" x1="0.000336373" y1="9.37232" x2="153.328" y2="23.3805" gradientUnits="userSpaceOnUse">
      <stop stop-color="#314664"/>
      <stop offset="1" stop-color="#5A77A1"/>
    </linearGradient>
  </defs>
</svg>