<svg width="37" height="36" viewBox="0 0 37 36" fill="none" xmlns="http://www.w3.org/2000/svg">
<path d="M3.5 8.24452C3.5 5.90034 5.36665 4 7.66927 4H30.3501V5.69781H7.66927C6.2877 5.69781 5.16771 6.83801 5.16771 8.24452V28.6182C5.16771 30.0247 6.2877 31.1649 7.66927 31.1649H28.3489C29.7304 31.1649 30.8504 30.0247 30.8504 28.6182V21.4874H32.5181V28.6182C32.5181 30.9624 30.6515 32.8627 28.3489 32.8627H7.66927C5.36665 32.8627 3.5 30.9624 3.5 28.6182V8.24452Z" fill="url(#paint0_linear_1007_10307)"/>
<path d="M14.0066 9.26321V20.1292C14.0066 22.3796 15.7985 24.2039 18.0091 24.2039C20.2196 24.2039 22.0116 22.3796 22.0116 20.1292V9.26321H26.0141V20.1292C26.0141 24.63 22.4301 28.2787 18.0091 28.2787C13.588 28.2787 10.0041 24.63 10.0041 20.1292V9.26321H14.0066Z" fill="url(#paint1_linear_1007_10307)"/>
<path d="M30.2167 18.3363C30.6703 18.4902 31.2084 18.5672 31.831 18.5672C32.5426 18.5672 33.1741 18.4495 33.7256 18.2141C34.277 17.9786 34.7084 17.6436 35.0197 17.2089C35.3399 16.7653 35.5 16.2355 35.5 15.6198C35.5 15.0312 35.3799 14.5423 35.1398 14.1529C34.9085 13.7635 34.5794 13.4692 34.1525 13.27C33.7344 13.0618 33.2542 12.935 32.7116 12.8897L32.5515 12.8761L34.8596 10.4585C34.9041 10.4132 34.9441 10.3589 34.9797 10.2955C35.0153 10.2321 35.033 10.1596 35.033 10.0782V9.26321C35.033 9.1636 35.0019 9.08211 34.9396 9.01872C34.8774 8.95534 34.7973 8.92364 34.6995 8.92364H28.9759C28.8781 8.92364 28.798 8.95534 28.7358 9.01872C28.6824 9.08211 28.6557 9.1636 28.6557 9.26321V10.1596C28.6557 10.2502 28.6824 10.3272 28.7358 10.3906C28.798 10.4539 28.8781 10.4856 28.9759 10.4856H32.7916L30.4035 12.8626C30.359 12.9078 30.3145 12.9667 30.2701 13.0391C30.2345 13.1025 30.2167 13.1795 30.2167 13.27V13.8405C30.2167 13.9401 30.2478 14.0216 30.3101 14.085C30.3723 14.1393 30.4524 14.1665 30.5502 14.1665H31.9244C32.4492 14.1665 32.8583 14.2751 33.1519 14.4925C33.4454 14.7007 33.5921 15.0448 33.5921 15.5247C33.5921 16.0046 33.432 16.3759 33.1118 16.6385C32.8005 16.892 32.378 17.0188 31.8444 17.0188C31.5775 17.0188 31.3241 16.9916 31.0839 16.9373C30.8438 16.8739 30.6303 16.7698 30.4435 16.6249C30.2656 16.48 30.1366 16.2853 30.0566 16.0409C30.0121 15.9322 29.9588 15.8598 29.8965 15.8235C29.8342 15.7873 29.7586 15.7692 29.6697 15.7692H28.4689C28.3889 15.7692 28.3177 15.7964 28.2555 15.8507C28.2021 15.896 28.1754 15.9594 28.1754 16.0409C28.1843 16.3306 28.2644 16.6249 28.4156 16.9237C28.5668 17.2135 28.7891 17.4851 29.0827 17.7387C29.3851 17.9831 29.7631 18.1824 30.2167 18.3363Z" fill="url(#paint2_linear_1007_10307)"/>
<defs>
<linearGradient id="paint0_linear_1007_10307" x1="1.33528" y1="6.88626" x2="19.1392" y2="-8.30136" gradientUnits="userSpaceOnUse">
<stop stop-color="#CD62FF"/>
<stop offset="1" stop-color="#62AAFF"/>
</linearGradient>
<linearGradient id="paint1_linear_1007_10307" x1="1.33528" y1="6.88626" x2="19.1392" y2="-8.30136" gradientUnits="userSpaceOnUse">
<stop stop-color="#CD62FF"/>
<stop offset="1" stop-color="#62AAFF"/>
</linearGradient>
<linearGradient id="paint2_linear_1007_10307" x1="1.33528" y1="6.88626" x2="19.1392" y2="-8.30136" gradientUnits="userSpaceOnUse">
<stop stop-color="#CD62FF"/>
<stop offset="1" stop-color="#62AAFF"/>
</linearGradient>
</defs>
</svg>
