<svg width="36" height="36" viewBox="0 0 36 36" fill="none" xmlns="http://www.w3.org/2000/svg">
<path fill-rule="evenodd" clip-rule="evenodd" d="M7.16927 4C4.86665 4 3 5.90034 3 8.24452V28.6182C3 30.9624 4.86665 32.8627 7.16927 32.8627H27.8489C30.1515 32.8627 32.0181 30.9624 32.0181 28.6182V21.4874H30.3504V28.6182C30.3504 30.0247 29.2304 31.1649 27.8489 31.1649H7.16927C5.7877 31.1649 4.66771 30.0247 4.66771 28.6182V8.24452C4.66771 6.83801 5.7877 5.69781 7.16927 5.69781H29.8501V4H7.16927ZM31.331 18.5672C30.7084 18.5672 30.1703 18.4902 29.7167 18.3363C29.2631 18.1824 28.8851 17.9831 28.5827 17.7387C28.2891 17.4851 28.0668 17.2135 27.9156 16.9237C27.7644 16.6249 27.6843 16.3306 27.6754 16.0409C27.6754 15.9594 27.7021 15.896 27.7555 15.8507C27.8177 15.7964 27.8889 15.7692 27.9689 15.7692H29.1697C29.2586 15.7692 29.3342 15.7873 29.3965 15.8235C29.4588 15.8598 29.5121 15.9322 29.5566 16.0409C29.6366 16.2853 29.7656 16.48 29.9435 16.6249C30.1303 16.7698 30.3438 16.8739 30.5839 16.9373C30.8241 16.9916 31.0775 17.0188 31.3444 17.0188C31.878 17.0188 32.3005 16.892 32.6118 16.6385C32.932 16.3759 33.0921 16.0046 33.0921 15.5247C33.0921 15.0448 32.9454 14.7007 32.6519 14.4925C32.3583 14.2751 31.9492 14.1665 31.4244 14.1665H30.0502C29.9524 14.1665 29.8723 14.1393 29.8101 14.085C29.7478 14.0216 29.7167 13.9401 29.7167 13.8405V13.27C29.7167 13.1795 29.7345 13.1025 29.7701 13.0391C29.8145 12.9667 29.859 12.9078 29.9035 12.8626L32.2916 10.4856H28.4759C28.3781 10.4856 28.298 10.4539 28.2358 10.3906C28.1824 10.3272 28.1557 10.2502 28.1557 10.1596V9.26321C28.1557 9.1636 28.1824 9.08211 28.2358 9.01872C28.298 8.95534 28.3781 8.92364 28.4759 8.92364H34.1995C34.2973 8.92364 34.3774 8.95534 34.4396 9.01872C34.5019 9.08211 34.533 9.1636 34.533 9.26321V10.0782C34.533 10.1596 34.5153 10.2321 34.4797 10.2955C34.4441 10.3589 34.4041 10.4132 34.3596 10.4585L32.0515 12.8761L32.2116 12.8897C32.7542 12.935 33.2344 13.0618 33.6525 13.27C34.0794 13.4692 34.4085 13.7635 34.6398 14.1529C34.8799 14.5423 35 15.0312 35 15.6198C35 16.2355 34.8399 16.7653 34.5197 17.2089C34.2084 17.6436 33.777 17.9786 33.2256 18.2141C32.6741 18.4495 32.0426 18.5672 31.331 18.5672ZM13.4144 26.3C14.5353 26.7667 15.9235 27 17.5789 27C19.0792 27 20.3898 26.7917 21.5107 26.375C22.6488 25.9417 23.5369 25.325 24.175 24.525C24.8302 23.725 25.1579 22.7667 25.1579 21.65C25.1579 20.65 24.9337 19.825 24.4854 19.175C24.037 18.5083 23.3386 17.9667 22.3902 17.55C21.4417 17.1333 20.2087 16.775 18.6912 16.475C17.7083 16.225 16.915 16 16.3115 15.8C15.7252 15.5833 15.3027 15.3417 15.044 15.075C14.8026 14.7917 14.6819 14.45 14.6819 14.05C14.6819 13.4333 14.9233 12.975 15.4061 12.675C15.9062 12.375 16.5788 12.225 17.4237 12.225C18.2342 12.225 18.8895 12.3917 19.3896 12.725C19.907 13.0417 20.2174 13.4167 20.3208 13.85C20.407 14.0167 20.5191 14.1333 20.6571 14.2C20.795 14.2667 20.9502 14.3 21.1227 14.3H24.0198C24.175 14.3 24.3043 14.25 24.4078 14.15C24.5112 14.0333 24.563 13.9083 24.563 13.775C24.5457 13.2583 24.3819 12.725 24.0715 12.175C23.7611 11.625 23.3041 11.1083 22.7006 10.625C22.1142 10.1417 21.3727 9.75 20.476 9.45C19.5966 9.15 18.5791 9 17.4237 9C15.9925 9 14.7595 9.225 13.7248 9.675C12.6901 10.1083 11.8883 10.7167 11.3192 11.5C10.7501 12.2667 10.4656 13.15 10.4656 14.15C10.4656 15.15 10.6898 15.9917 11.1381 16.675C11.6037 17.3417 12.2849 17.8917 13.1816 18.325C14.0956 18.7417 15.1992 19.0833 16.4925 19.35C17.5617 19.6 18.4153 19.8333 19.0534 20.05C19.7086 20.2667 20.1829 20.5083 20.476 20.775C20.7864 21.0417 20.9416 21.3917 20.9416 21.825C20.9416 22.425 20.6571 22.9 20.088 23.25C19.5362 23.6 18.6998 23.775 17.5789 23.775C16.8892 23.775 16.3115 23.6917 15.8459 23.525C15.3803 23.3417 15.0095 23.1167 14.7336 22.85C14.4749 22.5833 14.2853 22.3083 14.1645 22.025C14.0611 21.8917 13.949 21.7833 13.8283 21.7C13.7076 21.6 13.5351 21.55 13.3109 21.55H10.5432C10.388 21.55 10.2587 21.6083 10.1552 21.725C10.0517 21.825 10 21.9417 10 22.075C10.0345 22.925 10.3363 23.725 10.9053 24.475C11.4744 25.225 12.3108 25.8333 13.4144 26.3Z" fill="white"/>
<path fill-rule="evenodd" clip-rule="evenodd" d="M7.16927 4C4.86665 4 3 5.90034 3 8.24452V28.6182C3 30.9624 4.86665 32.8627 7.16927 32.8627H27.8489C30.1515 32.8627 32.0181 30.9624 32.0181 28.6182V21.4874H30.3504V28.6182C30.3504 30.0247 29.2304 31.1649 27.8489 31.1649H7.16927C5.7877 31.1649 4.66771 30.0247 4.66771 28.6182V8.24452C4.66771 6.83801 5.7877 5.69781 7.16927 5.69781H29.8501V4H7.16927ZM31.331 18.5672C30.7084 18.5672 30.1703 18.4902 29.7167 18.3363C29.2631 18.1824 28.8851 17.9831 28.5827 17.7387C28.2891 17.4851 28.0668 17.2135 27.9156 16.9237C27.7644 16.6249 27.6843 16.3306 27.6754 16.0409C27.6754 15.9594 27.7021 15.896 27.7555 15.8507C27.8177 15.7964 27.8889 15.7692 27.9689 15.7692H29.1697C29.2586 15.7692 29.3342 15.7873 29.3965 15.8235C29.4588 15.8598 29.5121 15.9322 29.5566 16.0409C29.6366 16.2853 29.7656 16.48 29.9435 16.6249C30.1303 16.7698 30.3438 16.8739 30.5839 16.9373C30.8241 16.9916 31.0775 17.0188 31.3444 17.0188C31.878 17.0188 32.3005 16.892 32.6118 16.6385C32.932 16.3759 33.0921 16.0046 33.0921 15.5247C33.0921 15.0448 32.9454 14.7007 32.6519 14.4925C32.3583 14.2751 31.9492 14.1665 31.4244 14.1665H30.0502C29.9524 14.1665 29.8723 14.1393 29.8101 14.085C29.7478 14.0216 29.7167 13.9401 29.7167 13.8405V13.27C29.7167 13.1795 29.7345 13.1025 29.7701 13.0391C29.8145 12.9667 29.859 12.9078 29.9035 12.8626L32.2916 10.4856H28.4759C28.3781 10.4856 28.298 10.4539 28.2358 10.3906C28.1824 10.3272 28.1557 10.2502 28.1557 10.1596V9.26321C28.1557 9.1636 28.1824 9.08211 28.2358 9.01872C28.298 8.95534 28.3781 8.92364 28.4759 8.92364H34.1995C34.2973 8.92364 34.3774 8.95534 34.4396 9.01872C34.5019 9.08211 34.533 9.1636 34.533 9.26321V10.0782C34.533 10.1596 34.5153 10.2321 34.4797 10.2955C34.4441 10.3589 34.4041 10.4132 34.3596 10.4585L32.0515 12.8761L32.2116 12.8897C32.7542 12.935 33.2344 13.0618 33.6525 13.27C34.0794 13.4692 34.4085 13.7635 34.6398 14.1529C34.8799 14.5423 35 15.0312 35 15.6198C35 16.2355 34.8399 16.7653 34.5197 17.2089C34.2084 17.6436 33.777 17.9786 33.2256 18.2141C32.6741 18.4495 32.0426 18.5672 31.331 18.5672ZM13.4144 26.3C14.5353 26.7667 15.9235 27 17.5789 27C19.0792 27 20.3898 26.7917 21.5107 26.375C22.6488 25.9417 23.5369 25.325 24.175 24.525C24.8302 23.725 25.1579 22.7667 25.1579 21.65C25.1579 20.65 24.9337 19.825 24.4854 19.175C24.037 18.5083 23.3386 17.9667 22.3902 17.55C21.4417 17.1333 20.2087 16.775 18.6912 16.475C17.7083 16.225 16.915 16 16.3115 15.8C15.7252 15.5833 15.3027 15.3417 15.044 15.075C14.8026 14.7917 14.6819 14.45 14.6819 14.05C14.6819 13.4333 14.9233 12.975 15.4061 12.675C15.9062 12.375 16.5788 12.225 17.4237 12.225C18.2342 12.225 18.8895 12.3917 19.3896 12.725C19.907 13.0417 20.2174 13.4167 20.3208 13.85C20.407 14.0167 20.5191 14.1333 20.6571 14.2C20.795 14.2667 20.9502 14.3 21.1227 14.3H24.0198C24.175 14.3 24.3043 14.25 24.4078 14.15C24.5112 14.0333 24.563 13.9083 24.563 13.775C24.5457 13.2583 24.3819 12.725 24.0715 12.175C23.7611 11.625 23.3041 11.1083 22.7006 10.625C22.1142 10.1417 21.3727 9.75 20.476 9.45C19.5966 9.15 18.5791 9 17.4237 9C15.9925 9 14.7595 9.225 13.7248 9.675C12.6901 10.1083 11.8883 10.7167 11.3192 11.5C10.7501 12.2667 10.4656 13.15 10.4656 14.15C10.4656 15.15 10.6898 15.9917 11.1381 16.675C11.6037 17.3417 12.2849 17.8917 13.1816 18.325C14.0956 18.7417 15.1992 19.0833 16.4925 19.35C17.5617 19.6 18.4153 19.8333 19.0534 20.05C19.7086 20.2667 20.1829 20.5083 20.476 20.775C20.7864 21.0417 20.9416 21.3917 20.9416 21.825C20.9416 22.425 20.6571 22.9 20.088 23.25C19.5362 23.6 18.6998 23.775 17.5789 23.775C16.8892 23.775 16.3115 23.6917 15.8459 23.525C15.3803 23.3417 15.0095 23.1167 14.7336 22.85C14.4749 22.5833 14.2853 22.3083 14.1645 22.025C14.0611 21.8917 13.949 21.7833 13.8283 21.7C13.7076 21.6 13.5351 21.55 13.3109 21.55H10.5432C10.388 21.55 10.2587 21.6083 10.1552 21.725C10.0517 21.825 10 21.9417 10 22.075C10.0345 22.925 10.3363 23.725 10.9053 24.475C11.4744 25.225 12.3108 25.8333 13.4144 26.3Z" fill="url(#paint0_linear_1480_7447)"/>
<defs>
<linearGradient id="paint0_linear_1480_7447" x1="0.835281" y1="6.88626" x2="18.6392" y2="-8.30136" gradientUnits="userSpaceOnUse">
<stop stop-color="#CD62FF"/>
<stop offset="1" stop-color="#62AAFF"/>
</linearGradient>
</defs>
</svg>
